<?xml version="1.0" encoding="iso-8859-1"?>
<!-- Generator: Adobe Illustrator 18.1.1, SVG Export Plug-In . SVG Version: 6.00 Build 0)  -->
<svg version="1.1" id="Capa_1" xmlns="http://www.w3.org/2000/svg" xmlns:xlink="http://www.w3.org/1999/xlink" x="0px" y="0px" viewBox="0 0 304.223 304.223" style="enable-background:new 0 0 304.223 304.223;" xml:space="preserve">
  <g>
    <g>
      <path style="fill:#010002;" d="M152.112,0C68.241,0,0.008,68.244,0.008,152.114c0,83.865,68.233,152.109,152.103,152.109
			c83.865,0,152.103-68.244,152.103-152.109C304.215,68.244,235.982,0,152.112,0z M152.112,275.989
			c-68.32,0-123.891-55.565-123.891-123.875c0-68.326,55.571-123.891,123.891-123.891s123.891,55.565,123.891,123.891
			C276.003,220.424,220.432,275.989,152.112,275.989z" />
      <path style="fill:#010002;" d="M226.92,138.261H77.308c-7.658,0-13.853,6.206-13.853,13.853c0,7.664,6.201,13.853,13.853,13.853
			H226.92c7.658,0,13.859-6.19,13.859-13.853C240.779,144.467,234.573,138.261,226.92,138.261z" />
    </g>
  </g>
  <g></g>
  <g></g>
  <g></g>
  <g></g>
  <g></g>
  <g></g>
  <g></g>
  <g></g>
  <g></g>
  <g></g>
  <g></g>
  <g></g>
  <g></g>
  <g></g>
  <g></g>
</svg>